<svg width="1280" height="736" viewBox="0 0 1280 736" fill="none" xmlns="http://www.w3.org/2000/svg">
<g filter="url(#filter0_d_642_127)">
<ellipse cx="-11" cy="178.189" rx="50" ry="47.644" fill="#44B3E0"/>
<ellipse cx="78.5" cy="168.183" rx="73.5" ry="68.1309" fill="#44B3E0"/>
<ellipse cx="265" cy="125.78" rx="143" ry="125.78" fill="#44B3E0"/>
<ellipse cx="683" cy="125.78" rx="143" ry="125.78" fill="#44B3E0"/>
<ellipse cx="1111" cy="137.215" rx="153" ry="137.215" fill="#44B3E0"/>
<ellipse cx="862" cy="176.283" rx="69" ry="75.2775" fill="#44B3E0"/>
<ellipse cx="950" cy="125.78" rx="81" ry="76.2304" fill="#44B3E0"/>
<ellipse cx="1295" cy="177.236" rx="81" ry="76.2304" fill="#44B3E0"/>
<ellipse cx="1280" cy="517.414" rx="81" ry="76.2304" fill="#44B3E0"/>
<ellipse cx="1184" cy="545.047" rx="81" ry="76.2304" fill="#44B3E0"/>
<ellipse cx="1010.5" cy="602.696" rx="127.5" ry="124.351" fill="#44B3E0"/>
<ellipse cx="612.5" cy="566.487" rx="183.5" ry="143.408" fill="#44B3E0"/>
<ellipse cx="280" cy="593.168" rx="132" ry="134.832" fill="#44B3E0"/>
<ellipse cx="66" cy="424.508" rx="132" ry="134.832" fill="#44B3E0"/>
<ellipse cx="141.5" cy="582.209" rx="102.5" ry="92.4293" fill="#44B3E0"/>
<ellipse cx="432.5" cy="566.01" rx="102.5" ry="92.4293" fill="#44B3E0"/>
<ellipse cx="875.5" cy="579.351" rx="102.5" ry="92.4293" fill="#44B3E0"/>
<ellipse cx="422.5" cy="148.649" rx="102.5" ry="92.4293" fill="#44B3E0"/>
<ellipse cx="518.5" cy="148.649" rx="102.5" ry="92.4293" fill="#44B3E0"/>
<rect y="170.565" width="1280" height="373.529" fill="#44B3E0"/>
<g clip-path="url(#clip0_642_127)">
<path d="M1170.81 83.7934C1170.63 83.6379 1170.37 83.6066 1170.15 83.7101L1126.83 104.698C1126.65 104.789 1126.52 104.968 1126.51 105.167C1126.5 105.366 1126.6 105.555 1126.78 105.664L1137.75 112.411L1139.11 121.921C1139.14 122.099 1139.25 122.255 1139.42 122.338C1139.5 122.382 1139.6 122.403 1139.69 122.403C1139.78 122.403 1139.87 122.383 1139.95 122.343L1148.76 118.126L1155.47 121.239C1155.62 121.309 1155.79 121.315 1155.94 121.257C1156.09 121.2 1156.21 121.084 1156.27 120.938C1156.27 120.938 1171.04 84.6966 1170.92 84.4994L1170.96 84.407C1171.05 84.1923 1170.99 83.9483 1170.81 83.7934ZM1128.27 105.253L1168.1 85.9524L1137.95 111.203L1128.27 105.253ZM1161.25 93.1745L1164.75 90.2503L1161.3 94.1076C1161.25 93.8285 1161.24 93.5448 1161.26 93.2559C1161.27 93.2246 1161.26 93.2012 1161.25 93.1745ZM1160.65 94.8332L1158.28 97.4952C1158.21 96.9994 1158.15 96.5035 1158.09 96.0077C1158.08 95.953 1158.06 95.9075 1158.04 95.8652L1160.44 93.8532C1160.47 94.187 1160.54 94.513 1160.65 94.8332ZM1157.55 98.3053L1155.65 100.434C1155.56 99.6809 1155.47 98.928 1155.37 98.1745C1155.37 98.1511 1155.36 98.1342 1155.35 98.1134L1157.32 96.4664C1157.4 97.0794 1157.48 97.6923 1157.55 98.3053ZM1154.93 101.246L1152.81 103.62C1152.69 102.692 1152.57 101.764 1152.45 100.835C1152.44 100.749 1152.4 100.684 1152.35 100.628L1154.62 98.7296C1154.72 99.5683 1154.82 100.408 1154.93 101.246ZM1152.09 104.428L1149.99 106.774C1149.86 105.514 1149.73 104.255 1149.59 102.995C1149.59 102.977 1149.58 102.964 1149.58 102.947L1151.67 101.199C1151.81 102.275 1151.95 103.352 1152.09 104.428ZM1149.25 107.601L1147.73 109.301C1147.51 107.889 1147.28 106.477 1147.05 105.065L1148.83 103.575C1148.97 104.917 1149.11 106.259 1149.25 107.601ZM1147.03 110.088L1145.16 112.189C1144.98 110.487 1144.81 108.785 1144.64 107.083L1146.32 105.676C1146.56 107.147 1146.79 108.618 1147.03 110.088ZM1144.41 113.02L1143.37 114.186C1143.36 114.201 1143.35 114.219 1143.34 114.234C1143.33 114.241 1143.33 114.244 1143.32 114.251C1143.32 114.257 1143.32 114.262 1143.32 114.268C1143.31 114.279 1143.3 114.288 1143.29 114.3L1142.52 115.79C1142.33 113.626 1142.17 111.461 1142.04 109.292C1142.04 109.283 1142.03 109.276 1142.03 109.267L1143.88 107.72C1144.06 109.487 1144.24 111.254 1144.41 113.02ZM1138.88 112.006C1138.87 111.98 1138.86 111.958 1138.85 111.932L1141.26 109.916C1141.41 112.333 1141.59 114.747 1141.81 117.159L1140.08 120.47L1138.88 112.006ZM1141.43 120.386L1144.06 115.347L1147.57 117.45L1141.43 120.386ZM1155.41 119.971L1149.04 117.016L1144.7 114.418L1168.24 88.0568L1155.41 119.971Z" fill="white"/>
<path d="M1111.67 116.535C1111.7 116.539 1111.72 116.541 1111.75 116.541C1112.04 116.541 1112.29 116.342 1112.33 116.064C1112.39 115.71 1112.45 115.359 1112.54 115.011C1112.61 114.71 1112.41 114.412 1112.09 114.345C1111.78 114.277 1111.46 114.468 1111.39 114.768C1111.31 115.142 1111.23 115.52 1111.17 115.902C1111.13 116.207 1111.35 116.491 1111.67 116.535Z" fill="white"/>
<path d="M1111.81 120.747C1112.13 120.704 1112.36 120.421 1112.31 120.117C1112.22 119.479 1112.17 118.822 1112.17 118.165L1112.17 117.985C1112.18 117.677 1111.92 117.424 1111.59 117.42H1111.59C1111.27 117.42 1111.01 117.666 1111 117.971L1111 118.165C1111 118.873 1111.05 119.581 1111.15 120.271C1111.19 120.55 1111.44 120.752 1111.73 120.752C1111.76 120.752 1111.79 120.75 1111.81 120.747Z" fill="white"/>
<path d="M1137.54 126.882C1137.24 126.773 1136.9 126.917 1136.78 127.204C1136.51 127.891 1136.18 128.531 1135.81 129.105C1135.64 129.367 1135.73 129.71 1136 129.872C1136.1 129.928 1136.2 129.955 1136.31 129.955C1136.51 129.955 1136.7 129.861 1136.81 129.69C1137.22 129.057 1137.58 128.355 1137.88 127.603C1137.99 127.314 1137.84 126.992 1137.54 126.882Z" fill="white"/>
<path d="M1113.54 123.971C1113.21 123.347 1112.94 122.682 1112.73 121.993C1112.64 121.697 1112.32 121.531 1112.01 121.613C1111.7 121.699 1111.52 122.008 1111.61 122.304C1111.84 123.056 1112.13 123.782 1112.49 124.464C1112.59 124.661 1112.8 124.775 1113.01 124.775C1113.1 124.775 1113.19 124.756 1113.27 124.717C1113.56 124.581 1113.68 124.247 1113.54 123.971Z" fill="white"/>
<path d="M1124.41 129.226C1124.36 129.136 1124.32 129.046 1124.29 128.953C1124.5 128.789 1124.57 128.497 1124.44 128.256C1124.34 128.09 1124.18 127.988 1123.99 127.965C1123.95 127.733 1123.91 127.498 1123.89 127.257C1123.86 126.95 1123.58 126.712 1123.26 126.747C1122.94 126.773 1122.7 127.042 1122.72 127.349C1122.75 127.692 1122.81 128.03 1122.88 128.358C1122.48 128.509 1122.06 128.62 1121.63 128.69C1121.31 128.741 1121.1 129.029 1121.15 129.333C1121.2 129.637 1121.51 129.841 1121.83 129.789C1122.3 129.711 1122.77 129.59 1123.23 129.428C1123.26 129.51 1123.3 129.592 1123.33 129.672C1123.43 129.881 1123.64 130.007 1123.87 130.007C1123.95 130.007 1124.03 129.992 1124.1 129.96C1124.4 129.837 1124.53 129.508 1124.41 129.226Z" fill="white"/>
<path d="M1119.71 128.729C1119.01 128.645 1118.32 128.45 1117.66 128.153C1117.37 128.021 1117.02 128.139 1116.88 128.416C1116.74 128.694 1116.87 129.027 1117.16 129.16C1117.93 129.508 1118.74 129.736 1119.56 129.836C1119.59 129.839 1119.61 129.84 1119.64 129.84C1119.93 129.84 1120.18 129.634 1120.22 129.352C1120.26 129.048 1120.03 128.768 1119.71 128.729Z" fill="white"/>
<path d="M1134.61 130.59C1134.09 131.101 1133.52 131.516 1132.91 131.821C1132.62 131.965 1132.52 132.302 1132.67 132.575C1132.77 132.764 1132.97 132.872 1133.18 132.872C1133.28 132.872 1133.37 132.852 1133.46 132.808C1134.17 132.448 1134.84 131.963 1135.45 131.368C1135.68 131.146 1135.67 130.794 1135.44 130.579C1135.21 130.366 1134.84 130.369 1134.61 130.59Z" fill="white"/>
<path d="M1115.15 126.297C1114.94 126.071 1114.75 125.839 1114.57 125.6C1114.38 125.351 1114.01 125.296 1113.75 125.477C1113.49 125.659 1113.43 126.008 1113.62 126.257C1113.82 126.52 1114.03 126.777 1114.26 127.026C1114.58 127.377 1114.92 127.701 1115.28 127.992C1115.39 128.082 1115.52 128.126 1115.66 128.126C1115.82 128.126 1115.99 128.059 1116.1 127.93C1116.31 127.696 1116.28 127.343 1116.04 127.144C1115.72 126.889 1115.43 126.604 1115.15 126.297Z" fill="white"/>
<path d="M1127.39 125.156C1127.11 124.994 1126.75 125.076 1126.58 125.339C1126.48 125.502 1126.38 125.643 1126.3 125.754C1125.97 126.194 1125.61 126.594 1125.22 126.946C1124.98 127.157 1124.97 127.51 1125.19 127.734C1125.31 127.851 1125.46 127.91 1125.62 127.91C1125.76 127.91 1125.91 127.859 1126.02 127.758C1126.46 127.356 1126.88 126.898 1127.25 126.4C1127.35 126.272 1127.46 126.112 1127.58 125.923C1127.75 125.661 1127.66 125.317 1127.39 125.156Z" fill="white"/>
<path d="M1128.58 124.061C1128.92 123.251 1129.1 122.537 1129.1 121.937C1129.1 121.835 1129.09 121.734 1129.08 121.636C1129.05 121.33 1128.76 121.114 1128.44 121.137C1128.12 121.168 1127.89 121.442 1127.92 121.748C1127.93 121.809 1127.93 121.872 1127.93 121.937C1127.93 122.386 1127.78 122.977 1127.5 123.643C1127.37 123.928 1127.52 124.253 1127.82 124.369C1127.89 124.396 1127.96 124.41 1128.04 124.41C1128.27 124.409 1128.49 124.277 1128.58 124.061Z" fill="white"/>
<path d="M1127.13 131.913C1126.48 131.626 1125.91 131.23 1125.44 130.738C1125.22 130.512 1124.85 130.499 1124.61 130.707C1124.37 130.916 1124.36 131.269 1124.58 131.496C1125.16 132.094 1125.85 132.574 1126.63 132.923C1126.71 132.959 1126.8 132.976 1126.88 132.976C1127.1 132.976 1127.31 132.857 1127.41 132.655C1127.55 132.376 1127.42 132.044 1127.13 131.913Z" fill="white"/>
<path d="M1123.31 125.861C1123.35 125.868 1123.38 125.87 1123.42 125.87C1123.69 125.87 1123.94 125.682 1123.99 125.414C1124.05 125.097 1124.14 124.779 1124.24 124.471C1124.34 124.187 1124.5 123.816 1124.69 123.453C1124.83 123.176 1124.71 122.842 1124.41 122.708C1124.12 122.571 1123.77 122.69 1123.63 122.967C1123.43 123.373 1123.24 123.796 1123.13 124.125C1123.01 124.479 1122.91 124.845 1122.84 125.21C1122.78 125.514 1122.99 125.805 1123.31 125.861Z" fill="white"/>
<path d="M1124.89 121.943C1125 122.025 1125.13 122.064 1125.25 122.064C1125.43 122.064 1125.6 121.992 1125.71 121.855C1126.21 121.262 1126.7 120.936 1127.09 120.936L1127.17 120.38L1127.13 120.937C1127.44 120.955 1127.73 120.724 1127.75 120.417C1127.77 120.11 1127.53 119.844 1127.2 119.824C1127.19 119.823 1127.1 119.821 1127.09 119.821C1126.31 119.821 1125.54 120.271 1124.8 121.159C1124.6 121.399 1124.64 121.75 1124.89 121.943Z" fill="white"/>
<path d="M1131.11 132.405C1130.43 132.514 1129.7 132.52 1128.97 132.42C1128.65 132.381 1128.35 132.589 1128.31 132.894C1128.26 133.199 1128.48 133.482 1128.8 133.525C1129.21 133.58 1129.62 133.607 1130.01 133.607C1130.45 133.607 1130.89 133.573 1131.3 133.504C1131.62 133.453 1131.84 133.165 1131.78 132.861C1131.73 132.558 1131.42 132.354 1131.11 132.405Z" fill="white"/>
<path d="M1138.25 123.798C1137.93 123.756 1137.63 123.963 1137.58 124.268C1137.53 124.62 1137.46 124.973 1137.38 125.324C1137.3 125.624 1137.5 125.922 1137.82 125.99C1137.86 125.999 1137.9 126.004 1137.95 126.004C1138.21 126.004 1138.46 125.827 1138.52 125.568C1138.61 125.191 1138.68 124.81 1138.74 124.431C1138.79 124.126 1138.57 123.843 1138.25 123.798Z" fill="white"/>
<path d="M1155.37 116.22C1155.82 115.209 1156.26 114.197 1156.7 113.185C1156.91 112.718 1156.11 112.515 1155.91 112.976C1155.46 113.987 1155.02 114.999 1154.58 116.011C1154.37 116.477 1155.17 116.681 1155.37 116.22Z" fill="white"/>
<path d="M1157.59 111.162C1158.47 109.139 1159.36 107.116 1160.25 105.093C1160.45 104.626 1159.65 104.423 1159.45 104.884C1158.56 106.907 1157.68 108.93 1156.79 110.953C1156.59 111.42 1157.39 111.623 1157.59 111.162Z" fill="white"/>
</g>
<path d="M46.3823 659.869C37.6224 663.224 30.5 670.501 30.5 680.048C30.5 692.585 41.1661 702.749 54.3235 702.749C64.3425 702.749 71.9795 695.962 75.5 687.615C43.4265 693.374 43.3493 672.113 46.3823 659.869Z" stroke="black" stroke-width="5" stroke-linecap="round" stroke-linejoin="round"/>
</g>
<defs>
<filter id="filter0_d_642_127" x="-70" y="0" width="1450" height="736" filterUnits="userSpaceOnUse" color-interpolation-filters="sRGB">
<feFlood flood-opacity="0" result="BackgroundImageFix"/>
<feColorMatrix in="SourceAlpha" type="matrix" values="0 0 0 0 0 0 0 0 0 0 0 0 0 0 0 0 0 0 127 0" result="hardAlpha"/>
<feOffset dy="4"/>
<feGaussianBlur stdDeviation="2"/>
<feComposite in2="hardAlpha" operator="out"/>
<feColorMatrix type="matrix" values="0 0 0 0 0 0 0 0 0 0 0 0 0 0 0 0 0 0 0.25 0"/>
<feBlend mode="normal" in2="BackgroundImageFix" result="effect1_dropShadow_642_127"/>
<feBlend mode="normal" in="SourceGraphic" in2="effect1_dropShadow_642_127" result="shape"/>
</filter>
<clipPath id="clip0_642_127">
<rect width="60" height="57.1728" fill="white" transform="translate(1111 80.042)"/>
</clipPath>
</defs>
</svg>
