<svg width="340" height="340" viewBox="0 0 340 340" fill="none" xmlns="http://www.w3.org/2000/svg">
<path d="M80.1147 31.5537C73.9853 33.1553 70.037 35.4197 66.9682 38.4262C62.6419 42.6651 59.8211 48.616 58.279 59.8542C56.6914 71.4225 56.6665 86.7548 56.6665 108.739V230.126C62.1727 226.356 68.3787 223.488 75.0689 221.732C76.6834 221.307 78.3561 220.976 80.1147 220.715V31.5537Z" fill="#1C274D"/>
<path d="M103.563 219.775C103.729 219.775 103.896 219.775 104.063 219.775H283.333V108.739C283.333 86.7548 283.308 71.4225 281.721 59.854C280.178 48.616 277.358 42.665 273.031 38.4262C268.705 34.1875 262.631 31.4239 251.161 29.913C239.353 28.3577 223.703 28.3333 201.264 28.3333H138.735C124.544 28.3333 113.069 28.3431 103.563 28.7437V219.775Z" fill="#1C274D"/>
<path d="M123.105 242.747H105.875C90.5825 242.747 85.2363 242.846 81.1393 243.922C69.8948 246.874 60.9307 255.062 57.0864 265.707C57.3241 271.125 57.6966 275.89 58.2807 280.146C59.8229 291.384 62.6436 297.336 66.9699 301.574C71.2964 305.813 77.3705 308.576 88.8411 310.087C100.649 311.643 116.298 311.667 138.737 311.667H201.266C223.704 311.667 239.354 311.643 251.162 310.087C262.633 308.576 268.706 305.813 273.033 301.574C277.359 297.336 280.18 291.384 281.723 280.146C283.017 270.708 283.272 258.764 283.323 242.747H185.634V285.341C185.634 289.562 185.634 291.672 184.151 292.525C182.668 293.378 180.641 292.434 176.585 290.547L157.166 281.51C155.794 280.871 155.108 280.552 154.37 280.552C153.632 280.552 152.945 280.871 151.573 281.51L132.154 290.547C128.098 292.434 126.071 293.378 124.588 292.525C123.105 291.672 123.105 289.562 123.105 285.341V242.747Z" fill="#1C274D"/>
</svg>
