<svg width="340" height="340" viewBox="0 0 340 340" fill="none" xmlns="http://www.w3.org/2000/svg">
<path d="M297.5 329.375H53.125C41.3897 329.375 31.875 319.86 31.875 308.125C31.875 296.39 41.3897 286.875 53.125 286.875H297.5V329.375Z" fill="#F9EBB2"/>
<path d="M31.875 21.25V284.415C37.5169 279.352 44.9491 276.25 53.125 276.25H63.75V10.625H42.5C36.635 10.625 31.875 15.385 31.875 21.25Z" fill="#45AAB8"/>
<path d="M297.5 10.625H74.375V276.25H297.5H308.125V265.625V21.25C308.125 15.385 303.365 10.625 297.5 10.625Z" fill="#45AAB8"/>
<path d="M318.75 276.25V21.25C318.75 9.50406 309.246 0 297.5 0H42.5C30.7541 0 21.25 9.50406 21.25 21.25V308.125C21.25 325.725 35.5247 340 53.125 340H313.438C316.375 340 318.75 337.625 318.75 334.688C318.75 331.75 316.375 329.375 313.438 329.375H308.125V286.875C313.99 286.875 318.75 282.115 318.75 276.25ZM31.875 21.25C31.875 15.385 36.635 10.625 42.5 10.625H63.75V276.25H53.125C44.9491 276.25 37.5169 279.352 31.875 284.415V21.25ZM297.5 329.375H53.125C41.3897 329.375 31.875 319.86 31.875 308.125C31.875 296.39 41.3897 286.875 53.125 286.875H297.5V329.375ZM297.5 276.25H74.375V10.625H297.5C303.365 10.625 308.125 15.385 308.125 21.25V265.625V276.25H297.5Z" fill="#394240"/>
<path d="M228.438 138.125H122.188C119.25 138.125 116.875 140.5 116.875 143.438C116.875 146.375 119.25 148.75 122.188 148.75H228.438C231.375 148.75 233.75 146.375 233.75 143.438C233.75 140.5 231.375 138.125 228.438 138.125Z" fill="#394240"/>
<path d="M260.312 106.25H122.188C119.25 106.25 116.875 108.625 116.875 111.562C116.875 114.5 119.25 116.875 122.188 116.875H260.312C263.25 116.875 265.625 114.5 265.625 111.562C265.625 108.625 263.25 106.25 260.312 106.25Z" fill="#394240"/>
<path d="M122.188 85H185.938C188.875 85 191.25 82.6253 191.25 79.6875C191.25 76.7497 188.875 74.375 185.938 74.375H122.188C119.25 74.375 116.875 76.7497 116.875 79.6875C116.875 82.6253 119.25 85 122.188 85Z" fill="#394240"/>
<path opacity="0.2" d="M31.875 21.25V284.415C37.5169 279.352 44.9491 276.25 53.125 276.25H63.75V10.625H42.5C36.635 10.625 31.875 15.385 31.875 21.25Z" fill="#231F20"/>
</svg>
