<svg width="341" height="341" viewBox="0 0 341 341" fill="none" xmlns="http://www.w3.org/2000/svg">
<g clip-path="url(#clip0_646_132)">
<path d="M170.899 134.763C174.446 134.763 177.826 135.483 180.899 136.784V13.7626H160.899V136.784C163.972 135.483 167.352 134.763 170.899 134.763Z" fill="#1F2C47"/>
<path d="M170.899 186.096C167.352 186.096 163.972 185.376 160.899 184.075V269.763H180.899V184.075C177.826 185.376 174.446 186.096 170.899 186.096Z" fill="#1F2C47"/>
<path d="M170.899 196.096C151.232 196.096 135.232 180.096 135.232 160.43C135.232 140.763 151.232 124.763 170.899 124.763C190.566 124.763 206.566 140.763 206.566 160.43C206.566 180.096 190.566 196.096 170.899 196.096ZM170.899 144.763C162.26 144.763 155.232 151.791 155.232 160.43C155.232 169.069 162.26 176.096 170.899 176.096C179.538 176.096 186.566 169.069 186.566 160.43C186.566 151.791 179.538 144.763 170.899 144.763Z" fill="#1F2C47"/>
<path d="M66.3989 134.763C69.9459 134.763 73.3259 135.483 76.3989 136.784V13.7626H56.3989V136.784C59.4719 135.483 62.8519 134.763 66.3989 134.763Z" fill="#1F2C47"/>
<path d="M66.3989 186.096C62.8519 186.096 59.4719 185.376 56.3989 184.075V269.763H76.3989V184.075C73.3259 185.376 69.9459 186.096 66.3989 186.096Z" fill="#1F2C47"/>
<path d="M66.3989 196.096C46.7319 196.096 30.7319 180.096 30.7319 160.43C30.7319 140.763 46.7319 124.763 66.3989 124.763C86.0659 124.763 102.066 140.763 102.066 160.43C102.066 180.096 86.0659 196.096 66.3989 196.096ZM66.3989 144.763C57.7599 144.763 50.7319 151.791 50.7319 160.43C50.7319 169.069 57.7599 176.096 66.3989 176.096C75.0379 176.096 82.0659 169.069 82.0659 160.43C82.0659 151.791 75.0379 144.763 66.3989 144.763Z" fill="#1F2C47"/>
<path d="M314.033 327.495H27.7649C12.9509 327.495 0.898926 315.443 0.898926 300.629V282.629C0.898926 267.815 12.9509 255.763 27.7649 255.763H314.033C328.847 255.763 340.899 267.815 340.899 282.629V300.629C340.899 315.443 328.847 327.495 314.033 327.495ZM27.7649 275.763C23.9789 275.763 20.8989 278.843 20.8989 282.629V300.629C20.8989 304.415 23.9789 307.495 27.7649 307.495H314.033C317.819 307.495 320.899 304.415 320.899 300.629V282.629C320.899 278.843 317.819 275.763 314.033 275.763H27.7649Z" fill="#1F2C47"/>
<path d="M66.3989 121.43C80.5744 121.43 92.0659 109.938 92.0659 95.7626C92.0659 81.5871 80.5744 70.0956 66.3989 70.0956C52.2234 70.0956 40.7319 81.5871 40.7319 95.7626C40.7319 109.938 52.2234 121.43 66.3989 121.43Z" fill="#00969B"/>
<path d="M66.3989 131.43C46.7319 131.43 30.7319 115.43 30.7319 95.7626C30.7319 76.0956 46.7319 60.0956 66.3989 60.0956C86.0659 60.0956 102.066 76.0956 102.066 95.7626C102.066 115.43 86.0659 131.43 66.3989 131.43ZM66.3989 80.0956C57.7599 80.0956 50.7319 87.1236 50.7319 95.7626C50.7319 104.402 57.7599 111.43 66.3989 111.43C75.0379 111.43 82.0659 104.402 82.0659 95.7626C82.0659 87.1236 75.0379 80.0956 66.3989 80.0956Z" fill="#1F2C47"/>
<path d="M66.3989 250.763C80.5744 250.763 92.0659 239.271 92.0659 225.096C92.0659 210.92 80.5744 199.429 66.3989 199.429C52.2234 199.429 40.7319 210.92 40.7319 225.096C40.7319 239.271 52.2234 250.763 66.3989 250.763Z" fill="#00969B"/>
<path d="M66.3989 260.763C46.7319 260.763 30.7319 244.763 30.7319 225.096C30.7319 205.43 46.7319 189.43 66.3989 189.43C86.0659 189.43 102.066 205.43 102.066 225.096C102.066 244.763 86.0659 260.763 66.3989 260.763ZM66.3989 209.43C57.7599 209.43 50.7319 216.457 50.7319 225.096C50.7319 233.735 57.7599 240.763 66.3989 240.763C75.0379 240.763 82.0659 233.735 82.0659 225.096C82.0659 216.457 75.0379 209.43 66.3989 209.43Z" fill="#1F2C47"/>
<path d="M170.899 250.763C185.074 250.763 196.566 239.271 196.566 225.096C196.566 210.92 185.074 199.429 170.899 199.429C156.723 199.429 145.232 210.92 145.232 225.096C145.232 239.271 156.723 250.763 170.899 250.763Z" fill="#00969B"/>
<path d="M170.899 260.763C151.232 260.763 135.232 244.763 135.232 225.096C135.232 205.43 151.232 189.43 170.899 189.43C190.566 189.43 206.566 205.43 206.566 225.096C206.566 244.763 190.566 260.763 170.899 260.763ZM170.899 209.43C162.26 209.43 155.232 216.457 155.232 225.096C155.232 233.735 162.26 240.763 170.899 240.763C179.538 240.763 186.566 233.735 186.566 225.096C186.566 216.457 179.538 209.43 170.899 209.43Z" fill="#1F2C47"/>
<path d="M285.399 13.7626H265.399V269.763H285.399V13.7626Z" fill="#1F2C47"/>
<path d="M275.399 250.763C289.574 250.763 301.066 239.271 301.066 225.096C301.066 210.92 289.574 199.429 275.399 199.429C261.223 199.429 249.732 210.92 249.732 225.096C249.732 239.271 261.223 250.763 275.399 250.763Z" fill="#00969B"/>
<path d="M275.399 260.763C255.732 260.763 239.732 244.763 239.732 225.096C239.732 205.43 255.732 189.43 275.399 189.43C295.066 189.43 311.066 205.43 311.066 225.096C311.066 244.763 295.066 260.763 275.399 260.763ZM275.399 209.43C266.76 209.43 259.732 216.457 259.732 225.096C259.732 233.735 266.76 240.763 275.399 240.763C284.038 240.763 291.066 233.735 291.066 225.096C291.066 216.457 284.038 209.43 275.399 209.43Z" fill="#1F2C47"/>
</g>
<defs>
<clipPath id="clip0_646_132">
<rect width="340" height="340" fill="white" transform="translate(0.898926 0.62854)"/>
</clipPath>
</defs>
</svg>
