<svg width="1280" height="832" viewBox="0 0 1280 832" fill="none" xmlns="http://www.w3.org/2000/svg">
<g clip-path="url(#clip0_649_203)">
<rect width="1280" height="832" fill="white"/>
<ellipse cx="307" cy="251.5" rx="307" ry="189.5" fill="#FCB064"/>
<ellipse cx="640" cy="238.5" rx="307" ry="189.5" fill="#FCB064"/>
<path d="M1502.93 354C1502.93 523.551 1344.44 661 1148.93 661C953.425 661 794.934 523.551 794.934 354C794.934 184.449 953.425 47 1148.93 47C1344.44 47 1502.93 184.449 1502.93 354Z" fill="#FCB064"/>
<ellipse cx="162" cy="441" rx="354" ry="307" fill="#FCB064"/>
<ellipse cx="704.5" cy="541" rx="531.5" ry="234" fill="#FCB064"/>
<ellipse cx="1312" cy="559" rx="309" ry="210" fill="#FCB064"/>
<path d="M42.9263 514.48C34.1606 513.428 25.2835 516.231 19.0338 522.094C18.7098 522.398 18.3934 522.712 18.0871 523.025C16.8924 524.258 16.662 525.989 17.4973 527.441C18.3428 528.908 20.0387 529.685 21.8081 529.419C27.8552 528.509 33.9555 529.623 39.1648 532.504C36.6893 535.257 34.9402 538.503 34.1631 542.033C33.9277 543.101 34.2846 544.208 35.1224 544.994C35.7882 545.621 36.6741 545.958 37.5828 545.958C37.8132 545.958 38.0486 545.937 38.2789 545.892C42.0429 545.16 45.5031 543.519 48.4343 541.199C51.5072 546.089 52.6893 551.813 51.7249 557.484C51.4414 559.149 52.2691 560.738 53.8334 561.531C54.446 561.847 55.1117 561.999 55.7724 561.999C56.7646 561.999 57.7467 561.652 58.534 560.978C58.8706 560.693 59.1997 560.396 59.5262 560.092C65.3861 554.592 68.659 546.139 67.4642 537.796C71.0383 535.485 74.4226 532.87 77.5057 529.977C88.9621 519.225 96.2344 504.994 97.9759 489.906C98.0999 488.849 97.7025 487.802 96.8875 487.039C96.0749 486.277 94.9612 485.911 93.8322 486.018C77.7512 487.655 62.584 494.478 51.125 505.23C48.0926 508.075 45.3537 511.196 42.9263 514.48ZM94.1056 488.381C94.4575 488.334 94.8296 488.467 95.0979 488.721C95.3662 488.975 95.4978 489.312 95.4598 489.654C93.7538 504.417 86.927 517.781 75.7161 528.3C73.0127 530.837 70.0461 533.122 66.9453 535.197C65.8366 530.918 63.4902 526.749 59.6224 523.12C59.1288 522.657 58.3264 522.657 57.8328 523.12C57.3392 523.584 57.3392 524.336 57.8328 524.8C66.6137 533.038 68.9779 547.866 57.7366 558.411C57.4405 558.688 57.1392 558.957 56.833 559.22C56.0635 559.883 55.2611 559.56 55.0332 559.444C54.5523 559.199 54.0866 558.655 54.2207 557.862C55.3623 551.155 53.7955 544.362 49.8062 538.738C49.7834 538.705 49.7455 538.689 49.7202 538.658C49.6974 538.632 49.6898 538.601 49.6645 538.577C49.6341 538.548 49.5936 538.537 49.5632 538.51C49.4873 538.451 49.4113 538.399 49.3253 538.356C49.2671 538.328 49.2114 538.306 49.1481 538.287C49.0519 538.256 48.9582 538.237 48.857 538.23C48.7988 538.225 48.7406 538.225 48.6823 538.23C48.5811 538.235 48.4849 538.252 48.3862 538.28C48.3229 538.299 48.2672 538.323 48.2065 538.349C48.1558 538.373 48.1001 538.377 48.0521 538.408C48.0116 538.432 47.9913 538.47 47.9559 538.499C47.9306 538.518 47.8977 538.525 47.8749 538.548C45.0702 541.092 41.5721 542.831 37.7625 543.569C37.3145 543.65 37.0209 543.422 36.912 543.317C36.8007 543.213 36.5526 542.926 36.6437 542.517C37.4309 538.945 39.2813 535.663 41.9948 533.029C42.0277 532.998 42.0378 532.958 42.0657 532.924C42.0859 532.901 42.1188 532.889 42.1391 532.863C42.1669 532.822 42.172 532.777 42.1947 532.737C42.2327 532.668 42.2631 532.599 42.2859 532.525C42.3087 532.449 42.3213 532.376 42.3289 532.297C42.3365 532.224 42.3365 532.153 42.3264 532.077C42.3188 532.001 42.3011 531.929 42.2757 531.856C42.253 531.784 42.2226 531.718 42.1846 531.649C42.1441 531.58 42.096 531.518 42.0429 531.454C42.0125 531.421 41.9998 531.378 41.9644 531.347C41.934 531.321 41.8961 531.312 41.8657 531.288C41.8353 531.264 41.8176 531.233 41.7847 531.212C35.7932 527.474 28.5538 526.001 21.4081 527.07C20.5576 527.208 19.983 526.761 19.7223 526.31C19.6008 526.096 19.254 525.348 19.9577 524.621C20.2362 524.334 20.5222 524.054 20.8183 523.776C26.6731 518.28 35.0516 515.696 43.2528 516.881C43.268 516.884 43.2781 516.874 43.2908 516.874C43.2984 516.874 43.3085 516.874 43.3161 516.874C43.3363 516.874 43.3541 516.881 43.3718 516.884C43.5135 516.898 43.6553 516.903 43.7945 516.872C43.8578 516.858 43.9135 516.829 43.9742 516.808C44.0628 516.774 44.1514 516.748 44.2299 516.696C44.3058 516.646 44.3615 516.582 44.4222 516.518C44.4653 516.473 44.521 516.444 44.5589 516.392C46.9991 513.01 49.8138 509.818 52.9171 506.906C63.9686 496.537 78.5941 489.958 94.1056 488.381Z" fill="black"/>
<path d="M73.0406 516.539C75.0682 516.539 76.9767 515.798 78.4119 514.454C81.371 511.675 81.371 507.156 78.4119 504.377C75.5415 501.686 70.5398 501.686 67.6719 504.377C64.7103 507.156 64.7103 511.675 67.6719 514.454C69.1045 515.801 71.0131 516.539 73.0406 516.539ZM69.4615 506.056C70.4183 505.158 71.689 504.664 73.0406 504.664C74.3923 504.664 75.6655 505.158 76.6224 506.056C78.5942 507.909 78.5942 510.923 76.6224 512.775C74.7087 514.566 71.3725 514.566 69.4615 512.775C67.4871 510.923 67.4871 507.911 69.4615 506.056Z" fill="black"/>
<path d="M30.7736 547.395L26.5743 551.338C26.0807 551.801 26.0807 552.554 26.5743 553.017C26.8224 553.25 27.1464 553.364 27.4704 553.364C27.7944 553.364 28.1184 553.247 28.3664 553.017L32.5658 549.074C33.0594 548.611 33.0594 547.858 32.5658 547.395C32.0722 546.932 31.2672 546.93 30.7736 547.395Z" fill="black"/>
<path d="M30.7637 535.547L20.254 545.405C19.7604 545.868 19.7604 546.621 20.254 547.084C20.502 547.317 20.826 547.431 21.15 547.431C21.474 547.431 21.798 547.315 22.0461 547.084L32.5559 537.226C33.0495 536.763 33.0495 536.01 32.5559 535.547C32.0623 535.083 31.2573 535.083 30.7637 535.547Z" fill="black"/>
<path d="M32.6218 558.689C32.8699 558.921 33.1939 559.035 33.5179 559.035C33.8419 559.035 34.1659 558.919 34.414 558.689L44.9237 548.83C45.4173 548.367 45.4173 547.614 44.9237 547.151C44.4301 546.688 43.6277 546.688 43.1341 547.151L32.6244 557.009C32.1282 557.475 32.1282 558.225 32.6218 558.689Z" fill="black"/>
<g clip-path="url(#clip1_649_203)">
<path d="M1291.56 269.558C1292.07 267.299 1292.32 264.962 1292.32 262.584C1292.32 261.549 1292.28 260.512 1292.18 259.484C1295.89 258.819 1298.74 255.229 1298.74 250.914C1298.74 246.128 1295.24 242.234 1290.93 242.234C1290.59 242.234 1290.25 242.261 1289.92 242.309C1290.75 239.92 1291.21 237.326 1291.21 234.614C1291.21 232.832 1291.01 231.072 1290.62 229.363C1293.67 227.826 1295.68 224.437 1295.68 220.613C1295.68 215.312 1291.8 211 1287.03 211C1284.16 211 1281.5 212.589 1279.91 215.159C1277.43 213.92 1274.73 213.27 1272 213.27C1269.27 213.27 1266.57 213.92 1264.09 215.159C1262.5 212.589 1259.84 211 1256.97 211C1252.2 211 1248.32 215.312 1248.32 220.613C1248.32 224.437 1250.33 227.826 1253.38 229.363C1252.99 231.072 1252.79 232.832 1252.79 234.614C1252.79 237.326 1253.25 239.92 1254.08 242.309C1253.75 242.261 1253.41 242.234 1253.07 242.234C1248.76 242.234 1245.26 246.128 1245.26 250.914C1245.26 255.229 1248.11 258.819 1251.82 259.484C1251.73 260.511 1251.68 261.548 1251.68 262.584C1251.68 264.963 1251.93 267.299 1252.44 269.558C1252.44 269.558 1252.44 269.558 1252.44 269.558C1252.43 269.559 1252.42 269.561 1252.41 269.562C1252.26 269.579 1252.12 269.6 1251.97 269.625C1251.92 269.633 1251.87 269.644 1251.82 269.654C1251.71 269.674 1251.61 269.693 1251.51 269.716C1251.45 269.729 1251.39 269.745 1251.33 269.76C1251.24 269.783 1251.14 269.805 1251.05 269.831C1250.99 269.849 1250.93 269.869 1250.87 269.887C1250.78 269.914 1250.69 269.941 1250.6 269.97C1250.54 269.991 1250.48 270.015 1250.42 270.037C1250.33 270.068 1250.25 270.099 1250.17 270.132C1250.1 270.157 1250.04 270.183 1249.98 270.209C1249.9 270.244 1249.82 270.279 1249.74 270.316C1249.68 270.344 1249.62 270.374 1249.55 270.403C1249.48 270.442 1249.4 270.481 1249.32 270.522C1249.26 270.553 1249.2 270.585 1249.14 270.618C1249.06 270.661 1248.99 270.704 1248.91 270.749C1248.85 270.783 1248.79 270.818 1248.74 270.854C1248.66 270.9 1248.59 270.948 1248.51 270.997C1248.46 271.034 1248.4 271.071 1248.34 271.109C1248.27 271.16 1248.2 271.212 1248.13 271.265C1248.07 271.305 1248.02 271.343 1247.97 271.384C1247.89 271.439 1247.82 271.497 1247.75 271.554C1247.7 271.595 1247.65 271.635 1247.6 271.677C1247.53 271.738 1247.46 271.801 1247.38 271.864C1247.34 271.906 1247.29 271.947 1247.24 271.989C1247.17 272.057 1247.1 272.128 1247.03 272.198C1246.99 272.238 1246.94 272.277 1246.9 272.318C1246.82 272.4 1246.75 272.484 1246.67 272.568C1246.64 272.6 1246.61 272.631 1246.58 272.664C1246.37 272.901 1246.16 273.15 1245.97 273.408C1245.94 273.446 1245.92 273.485 1245.89 273.523C1245.82 273.615 1245.75 273.707 1245.69 273.802C1245.66 273.851 1245.63 273.903 1245.59 273.953C1245.54 274.038 1245.48 274.123 1245.43 274.21C1245.39 274.266 1245.36 274.324 1245.33 274.381C1245.28 274.464 1245.23 274.547 1245.18 274.632C1245.15 274.692 1245.12 274.754 1245.08 274.816C1245.04 274.899 1245 274.982 1244.95 275.067C1244.92 275.131 1244.89 275.196 1244.86 275.261C1244.82 275.345 1244.78 275.429 1244.74 275.515C1244.71 275.582 1244.68 275.65 1244.66 275.717C1244.62 275.803 1244.59 275.889 1244.55 275.975C1244.52 276.044 1244.5 276.114 1244.47 276.184C1244.44 276.271 1244.41 276.359 1244.38 276.447C1244.35 276.518 1244.33 276.589 1244.31 276.662C1244.28 276.751 1244.25 276.84 1244.22 276.93C1244.2 277.003 1244.18 277.076 1244.16 277.149C1244.14 277.24 1244.11 277.332 1244.09 277.424C1244.07 277.498 1244.06 277.571 1244.04 277.645C1244.02 277.739 1244 277.834 1243.98 277.929C1243.97 278.003 1243.95 278.077 1243.94 278.151C1243.92 278.249 1243.9 278.348 1243.89 278.447C1243.88 278.52 1243.87 278.592 1243.86 278.665C1243.84 278.769 1243.83 278.874 1243.82 278.98C1243.81 279.049 1243.8 279.117 1243.8 279.187C1243.79 279.304 1243.78 279.421 1243.77 279.539C1243.77 279.598 1243.76 279.657 1243.76 279.716C1243.75 279.894 1243.75 280.072 1243.75 280.252C1243.75 280.622 1243.77 280.988 1243.8 281.349C1244.3 286.762 1248.42 291 1253.42 291H1253.42C1253.42 291 1253.42 291 1253.42 291C1253.57 291 1253.72 290.995 1253.87 290.988C1253.91 290.986 1253.94 290.983 1253.98 290.981C1254.12 290.973 1254.25 290.961 1254.39 290.947C1254.4 290.946 1254.41 290.945 1254.42 290.943C1257.78 290.565 1260.67 288.288 1262.12 284.973C1265.13 287.086 1268.51 288.193 1272 288.193C1275.49 288.193 1278.87 287.086 1281.88 284.973C1283.47 288.612 1286.8 291 1290.58 291C1295.91 291 1300.25 286.179 1300.25 280.252C1300.25 274.694 1296.43 270.109 1291.56 269.558ZM1251.32 220.613C1251.32 217.151 1253.85 214.334 1256.97 214.334C1259.19 214.334 1261.21 215.788 1262.13 218.038C1262.3 218.461 1262.62 218.786 1263.02 218.934C1263.41 219.081 1263.85 219.038 1264.21 218.814C1266.59 217.368 1269.28 216.604 1272 216.604C1274.72 216.604 1277.41 217.368 1279.79 218.814C1280.15 219.038 1280.59 219.081 1280.98 218.934C1281.38 218.786 1281.7 218.461 1281.87 218.038C1282.79 215.788 1284.81 214.334 1287.03 214.334C1290.15 214.334 1292.68 217.151 1292.68 220.613C1292.68 223.496 1290.93 226 1288.42 226.703C1288.01 226.816 1287.67 227.113 1287.47 227.521C1287.27 227.929 1287.23 228.412 1287.36 228.852C1287.92 230.703 1288.21 232.642 1288.21 234.614C1288.21 244.545 1280.94 252.625 1272 252.625C1263.06 252.625 1255.79 244.545 1255.79 234.614C1255.79 232.67 1256.07 230.759 1256.62 228.933C1256.62 228.907 1256.63 228.881 1256.64 228.854C1256.99 227.712 1257.44 226.604 1257.99 225.562C1258.4 224.766 1258.16 223.746 1257.44 223.283C1256.73 222.821 1255.81 223.091 1255.39 223.887C1255.01 224.627 1254.66 225.395 1254.35 226.183C1252.52 225.122 1251.32 222.998 1251.32 220.613ZM1280.66 258.282C1280.66 262.086 1279.7 265.643 1277.97 268.298C1276.34 270.791 1274.22 272.164 1272 272.164C1269.78 272.164 1267.66 270.791 1266.03 268.298C1264.3 265.643 1263.34 262.086 1263.34 258.282C1263.34 256.773 1263.5 255.31 1263.79 253.908C1266.28 255.222 1269.06 255.958 1272 255.958C1274.94 255.958 1277.72 255.222 1280.21 253.908C1280.5 255.31 1280.66 256.773 1280.66 258.282ZM1259.89 282.074C1259.89 282.094 1259.88 282.114 1259.88 282.135C1259.21 284.953 1257.09 287.122 1254.46 287.578C1254.44 287.58 1254.43 287.582 1254.41 287.585C1254.33 287.599 1254.24 287.611 1254.15 287.622C1254.13 287.625 1254.1 287.629 1254.07 287.631C1253.99 287.64 1253.91 287.646 1253.83 287.652C1253.8 287.654 1253.77 287.656 1253.75 287.658C1253.64 287.663 1253.53 287.667 1253.43 287.667C1253.43 287.667 1253.42 287.667 1253.42 287.667C1250.2 287.667 1247.51 285.12 1246.89 281.744C1246.8 281.262 1246.75 280.763 1246.75 280.252C1246.75 279.741 1246.8 279.242 1246.89 278.759C1247.51 275.384 1250.2 272.837 1253.42 272.837C1253.55 272.837 1253.68 272.842 1253.81 272.85C1253.85 272.852 1253.89 272.857 1253.93 272.86C1254.02 272.867 1254.1 272.876 1254.19 272.887C1257.51 273.312 1260.1 276.452 1260.1 280.252C1260.1 280.88 1260.03 281.49 1259.89 282.074ZM1290.58 287.667C1287.47 287.667 1284.8 285.323 1284.08 281.968C1284.07 281.889 1284.04 281.814 1284.02 281.741C1283.93 281.251 1283.88 280.751 1283.88 280.252C1283.88 279.442 1284 278.641 1284.23 277.874C1284.5 277.002 1284.08 276.055 1283.29 275.76C1282.51 275.465 1281.65 275.932 1281.39 276.804C1281.05 277.917 1280.88 279.077 1280.88 280.252C1280.88 280.717 1280.91 281.181 1280.96 281.642C1278.26 283.748 1275.18 284.86 1272 284.86C1268.81 284.86 1265.72 283.743 1263.02 281.625C1263.07 281.175 1263.1 280.717 1263.1 280.252C1263.1 275.157 1259.89 270.882 1255.6 269.781C1254.99 267.471 1254.68 265.054 1254.68 262.584C1254.68 261.109 1254.79 259.632 1255.01 258.193C1255.09 257.687 1254.96 257.169 1254.65 256.789C1254.34 256.409 1253.89 256.209 1253.43 256.246C1253.31 256.256 1253.19 256.261 1253.07 256.261C1250.42 256.261 1248.26 253.863 1248.26 250.915C1248.26 247.967 1250.42 245.568 1253.07 245.568C1254.32 245.568 1255.51 246.1 1256.41 247.066C1257.7 249.051 1259.28 250.78 1261.09 252.174C1260.6 254.118 1260.34 256.167 1260.34 258.282C1260.34 262.784 1261.5 267.037 1263.6 270.256C1265.81 273.636 1268.79 275.497 1272 275.497C1275.21 275.497 1278.19 273.636 1280.4 270.256C1282.5 267.036 1283.66 262.784 1283.66 258.282C1283.66 256.167 1283.4 254.118 1282.91 252.174C1284.72 250.78 1286.3 249.051 1287.59 247.067C1288.49 246.1 1289.68 245.568 1290.93 245.568C1293.58 245.568 1295.74 247.967 1295.74 250.915C1295.74 253.863 1293.58 256.261 1290.93 256.261C1290.81 256.261 1290.69 256.256 1290.57 256.246C1290.11 256.209 1289.66 256.409 1289.35 256.789C1289.04 257.169 1288.91 257.687 1288.99 258.193C1289.21 259.633 1289.32 261.111 1289.32 262.584C1289.32 265.385 1288.92 268.117 1288.13 270.705C1287.97 271.249 1288.07 271.848 1288.39 272.293C1288.72 272.738 1289.23 272.965 1289.74 272.894C1290.02 272.856 1290.3 272.837 1290.58 272.837C1294.26 272.837 1297.25 276.163 1297.25 280.252C1297.25 284.34 1294.26 287.667 1290.58 287.667Z" fill="black" fill-opacity="0.8"/>
<path d="M1265.81 233.766C1267.05 233.766 1268.06 232.643 1268.06 231.266C1268.06 229.889 1267.05 228.766 1265.81 228.766C1264.57 228.766 1263.56 229.889 1263.56 231.266C1263.56 232.643 1264.57 233.766 1265.81 233.766Z" fill="black" fill-opacity="0.8"/>
<path d="M1278.19 233.766C1279.43 233.766 1280.44 232.643 1280.44 231.266C1280.44 229.889 1279.43 228.766 1278.19 228.766C1276.95 228.766 1275.94 229.889 1275.94 231.266C1275.94 232.643 1276.95 233.766 1278.19 233.766Z" fill="black" fill-opacity="0.8"/>
<path d="M1272 240.206C1273.24 240.206 1274.25 239.083 1274.25 237.706C1274.25 236.329 1273.24 235.206 1272 235.206C1270.76 235.206 1269.75 236.329 1269.75 237.706C1269.75 239.083 1270.76 240.206 1272 240.206Z" fill="black" fill-opacity="0.8"/>
<path d="M1259.19 222.697C1259.58 222.697 1259.98 222.525 1260.27 222.183L1260.3 222.153C1260.87 221.485 1260.84 220.43 1260.24 219.797C1259.64 219.165 1258.69 219.194 1258.12 219.863C1258.11 219.865 1258.1 219.878 1258.1 219.883C1257.53 220.548 1257.55 221.601 1258.15 222.235C1258.44 222.544 1258.81 222.697 1259.19 222.697Z" fill="black" fill-opacity="0.8"/>
</g>
</g>
<defs>
<clipPath id="clip0_649_203">
<rect width="1280" height="832" fill="white"/>
</clipPath>
<clipPath id="clip1_649_203">
<rect width="72" height="80" fill="white" transform="translate(1236 211)"/>
</clipPath>
</defs>
</svg>
