<svg width="393" height="393" viewBox="0 0 393 393" fill="none" xmlns="http://www.w3.org/2000/svg">
<g clip-path="url(#clip0_646_170)">
<path d="M23.078 102.598C21.139 109.192 26.698 116.562 34.003 116.432H358.528C365.962 116.367 371.328 109.838 369.453 102.598L348.378 29.741C346.956 25.022 342.56 21.789 337.453 21.789H55.078C50.036 21.789 45.575 25.021 44.153 29.741" fill="#FFC10D"/>
<path d="M391.239 96.715L370.164 23.858C366.091 9.76499 352.645 0.00299072 337.582 0.00299072H55.0782C39.9512 0.00299072 26.5042 9.82899 22.4962 23.858L1.35619 96.715C-3.29881 112.941 4.26519 127.745 20.3622 135.438V359.761C20.3622 377.862 35.4892 392.537 54.2372 392.537H338.294C356.977 392.537 372.233 377.862 372.233 359.826V135.439C388.007 129.168 395.829 111.972 391.239 96.715ZM215.207 370.752H177.389V309.855L196.33 291.625L215.271 309.855V370.752H215.207ZM349.672 359.827C349.672 365.839 344.565 370.752 338.359 370.752H237.833V305.33C237.833 302.486 236.669 299.706 234.536 297.572L204.346 268.416C199.95 264.149 192.774 264.149 188.378 268.416L158.123 297.572C156.054 299.576 154.826 302.356 154.826 305.33V370.752H54.2372C47.9662 370.752 42.9242 365.904 42.9242 359.827V138.218H349.607V359.826H349.672V359.827ZM358.593 116.433H34.0032C26.8272 116.562 21.2682 109.193 23.0782 102.599L24.3712 98.138H57.4702C63.7412 98.138 68.7832 93.29 68.7832 87.213C68.7832 81.201 63.7412 76.288 57.4702 76.288H30.7712L35.6192 59.609H97.7442C104.015 59.609 109.057 54.761 109.057 48.684C109.057 42.672 104.015 37.759 97.7442 37.759H41.8902L44.2172 29.743C45.6392 25.024 50.0352 21.791 55.1422 21.791H337.518C342.56 21.791 347.021 25.023 348.443 29.743L369.518 102.6C371.393 109.903 366.027 116.433 358.593 116.433Z" fill="#194F82"/>
<path d="M42.9238 359.827C42.9238 365.839 48.0308 370.752 54.2368 370.752H154.762V305.33C154.762 302.486 155.926 299.706 158.059 297.572L188.249 268.416C192.645 264.149 199.821 264.149 204.217 268.416L234.407 297.572C236.476 299.576 237.704 302.356 237.704 305.33V370.752H338.229C344.5 370.752 349.542 365.904 349.542 359.827V138.218H42.9238V359.827Z" fill="white"/>
<path d="M215.207 309.855L196.266 291.56L177.389 309.855V370.752H215.207V309.855Z" fill="#56ACE0"/>
<path d="M108.929 196.012H86.3672V217.798H108.929V196.012Z" fill="#56ACE0"/>
<path d="M207.514 196.012H184.952V217.798H207.514V196.012Z" fill="#56ACE0"/>
<path d="M306.165 196.012H283.603V217.798H306.165V196.012Z" fill="#56ACE0"/>
<path d="M108.929 294.404H86.3672V316.19H108.929V294.404Z" fill="#56ACE0"/>
<path d="M306.165 294.404H283.603V316.19H306.165V294.404Z" fill="#56ACE0"/>
<path d="M120.306 239.713H75.1182C68.8472 239.713 63.8052 234.865 63.8052 228.788V185.216C63.8052 179.204 68.8472 174.291 75.1182 174.291H120.306C126.577 174.291 131.619 179.139 131.619 185.216V228.788C131.619 234.8 126.577 239.713 120.306 239.713ZM86.3672 217.798H108.929V196.012H86.3672V217.798Z" fill="#194F82"/>
<path d="M218.892 239.713H173.704C167.433 239.713 162.391 234.865 162.391 228.788V185.216C162.391 179.204 167.433 174.291 173.704 174.291H218.892C225.163 174.291 230.205 179.139 230.205 185.216V228.788C230.205 234.8 225.163 239.713 218.892 239.713ZM184.952 217.798H207.514V196.012H184.952V217.798Z" fill="#194F82"/>
<path d="M317.478 239.713H272.29C266.019 239.713 260.977 234.865 260.977 228.788V185.216C260.977 179.204 266.019 174.291 272.29 174.291H317.478C323.749 174.291 328.791 179.139 328.791 185.216V228.788C328.791 234.8 323.748 239.713 317.478 239.713ZM283.603 217.798H306.165V196.012H283.603V217.798Z" fill="#194F82"/>
<path d="M120.306 337.976H75.1182C68.8472 337.976 63.8052 333.128 63.8052 327.051V283.544C63.8052 277.532 68.8472 272.619 75.1182 272.619H120.306C126.577 272.619 131.619 277.467 131.619 283.544V327.116C131.619 333.128 126.577 337.976 120.306 337.976ZM86.3672 316.19H108.929V294.404H86.3672V316.19Z" fill="#194F82"/>
<path d="M317.478 337.976H272.29C266.019 337.976 260.977 333.128 260.977 327.051V283.544C260.977 277.532 266.019 272.619 272.29 272.619H317.478C323.749 272.619 328.791 277.467 328.791 283.544V327.116C328.791 333.128 323.748 337.976 317.478 337.976ZM283.603 316.19H306.165V294.404H283.603V316.19Z" fill="#194F82"/>
</g>
<defs>
<clipPath id="clip0_646_170">
<rect width="392.542" height="392.542" fill="white"/>
</clipPath>
</defs>
</svg>
