<svg width="1280" height="271" viewBox="0 0 1280 271" fill="none" xmlns="http://www.w3.org/2000/svg">
<circle cx="73" cy="213" r="50" fill="white"/>
<circle cx="-16" cy="115" r="50" fill="white"/>
<circle cx="42" cy="148" r="50" fill="white"/>
<ellipse cx="144.5" cy="193" rx="81.5" ry="70" fill="white"/>
<ellipse cx="260.5" cy="227" rx="81.5" ry="70" fill="white"/>
<ellipse cx="331.5" cy="218" rx="81.5" ry="70" fill="white"/>
<ellipse cx="419.5" cy="189" rx="81.5" ry="70" fill="white"/>
<ellipse cx="500.5" cy="246" rx="81.5" ry="70" fill="white"/>
<ellipse cx="589.5" cy="297" rx="81.5" ry="70" fill="white"/>
<ellipse cx="657.5" cy="288" rx="81.5" ry="70" fill="white"/>
<ellipse cx="699.5" cy="245" rx="55.5" ry="56" fill="white"/>
<ellipse cx="766.5" cy="260" rx="55.5" ry="56" fill="white"/>
<ellipse cx="852.5" cy="213.5" rx="80.5" ry="74.5" fill="white"/>
<ellipse cx="997.5" cy="191.5" rx="106.5" ry="96.5" fill="white"/>
<ellipse cx="1139.5" cy="186.5" rx="106.5" ry="96.5" fill="white"/>
<ellipse cx="1239.5" cy="149.5" rx="106.5" ry="96.5" fill="white"/>
<rect x="-10" y="169" width="266" height="155" fill="white"/>
<rect x="235" y="182" width="266" height="155" fill="white"/>
<rect x="874" y="211" width="266" height="155" fill="white"/>
<rect x="1050" y="201" width="266" height="155" fill="white"/>
<g clip-path="url(#clip0_613_25)">
<path d="M76.9275 177.481C68.1618 176.429 59.2847 179.231 53.035 185.095C52.711 185.399 52.3946 185.713 52.0883 186.026C50.8936 187.259 50.6632 188.99 51.4986 190.441C52.344 191.909 54.0399 192.686 55.8093 192.42C61.8564 191.51 67.9567 192.624 73.1661 195.505C70.6905 198.257 68.9414 201.504 68.1643 205.033C67.9289 206.102 68.2858 207.209 69.1237 207.995C69.7894 208.622 70.6753 208.959 71.584 208.959C71.8144 208.959 72.0498 208.938 72.2801 208.893C76.0441 208.161 79.5043 206.52 82.4355 204.2C85.5084 209.09 86.6905 214.814 85.7261 220.485C85.4426 222.15 86.2703 223.739 87.8347 224.532C88.4472 224.848 89.1129 225 89.7736 225C90.7658 225 91.748 224.653 92.5352 223.979C92.8718 223.694 93.2009 223.397 93.5274 223.093C99.3873 217.592 102.66 209.14 101.465 200.796C105.04 198.485 108.424 195.871 111.507 192.978C122.963 182.226 130.236 167.995 131.977 152.907C132.101 151.85 131.704 150.803 130.889 150.04C130.076 149.278 128.962 148.912 127.833 149.019C111.752 150.655 96.5852 157.479 85.1262 168.23C82.0938 171.076 79.355 174.196 76.9275 177.481ZM128.107 151.382C128.459 151.335 128.831 151.468 129.099 151.722C129.367 151.976 129.499 152.313 129.461 152.655C127.755 167.418 120.928 180.782 109.717 191.301C107.014 193.838 104.047 196.122 100.947 198.198C99.8378 193.918 97.4914 189.75 93.6236 186.121C93.13 185.658 92.3276 185.658 91.834 186.121C91.3404 186.584 91.3404 187.337 91.834 187.8C100.615 196.039 102.979 210.866 91.7378 221.411C91.4417 221.689 91.1405 221.958 90.8342 222.221C90.0647 222.884 89.2623 222.561 89.0345 222.444C88.5535 222.2 88.0878 221.656 88.2219 220.863C89.3635 214.156 87.7967 207.363 83.8074 201.739C83.7847 201.706 83.7467 201.689 83.7214 201.658C83.6986 201.632 83.691 201.601 83.6657 201.578C83.6353 201.549 83.5948 201.537 83.5644 201.511C83.4885 201.452 83.4126 201.4 83.3265 201.357C83.2683 201.328 83.2126 201.307 83.1493 201.288C83.0531 201.257 82.9595 201.238 82.8582 201.231C82.8 201.226 82.7418 201.226 82.6836 201.231C82.5823 201.236 82.4861 201.252 82.3874 201.281C82.3241 201.3 82.2684 201.324 82.2077 201.35C82.1571 201.373 82.1014 201.378 82.0533 201.409C82.0128 201.433 81.9925 201.471 81.9571 201.499C81.9318 201.518 81.8989 201.525 81.8761 201.549C79.0715 204.093 75.5733 205.831 71.7637 206.57C71.3157 206.651 71.0221 206.423 70.9132 206.318C70.8019 206.214 70.5538 205.926 70.6449 205.518C71.4322 201.946 73.2825 198.664 75.996 196.03C76.0289 195.999 76.039 195.958 76.0669 195.925C76.0871 195.901 76.12 195.89 76.1403 195.863C76.1681 195.823 76.1732 195.778 76.196 195.738C76.2339 195.669 76.2643 195.6 76.2871 195.526C76.3099 195.45 76.3225 195.377 76.3301 195.298C76.3377 195.225 76.3377 195.153 76.3276 195.077C76.32 195.001 76.3023 194.93 76.277 194.856C76.2542 194.785 76.2238 194.719 76.1858 194.65C76.1453 194.581 76.0972 194.519 76.0441 194.455C76.0137 194.422 76.0011 194.379 75.9656 194.348C75.9352 194.322 75.8973 194.313 75.8669 194.289C75.8365 194.265 75.8188 194.234 75.7859 194.213C69.7944 190.475 62.5551 189.002 55.4093 190.071C54.5588 190.209 53.9842 189.762 53.7235 189.311C53.602 189.097 53.2552 188.349 53.9589 187.622C54.2374 187.335 54.5234 187.055 54.8196 186.777C60.6743 181.281 69.0528 178.697 77.254 179.882C77.2692 179.884 77.2793 179.875 77.292 179.875C77.2996 179.875 77.3097 179.875 77.3173 179.875C77.3376 179.875 77.3553 179.882 77.373 179.884C77.5147 179.899 77.6565 179.903 77.7957 179.873C77.859 179.858 77.9147 179.83 77.9754 179.808C78.064 179.775 78.1526 179.749 78.2311 179.697C78.307 179.647 78.3627 179.583 78.4235 179.519C78.4665 179.474 78.5222 179.445 78.5602 179.393C81.0003 176.011 83.815 172.819 86.9183 169.907C97.9698 159.538 112.595 152.959 128.107 151.382Z" fill="black"/>
<path d="M107.042 179.54C109.069 179.54 110.978 178.799 112.413 177.455C115.372 174.676 115.372 170.157 112.413 167.378C109.543 164.687 104.541 164.687 101.673 167.378C98.7115 170.157 98.7115 174.676 101.673 177.455C103.106 178.802 105.014 179.54 107.042 179.54ZM103.463 169.057C104.419 168.159 105.69 167.665 107.042 167.665C108.394 167.665 109.667 168.159 110.624 169.057C112.595 170.909 112.595 173.923 110.624 175.776C108.71 177.567 105.374 177.567 103.463 175.776C101.488 173.923 101.488 170.912 103.463 169.057Z" fill="black"/>
<path d="M64.775 210.396L60.5756 214.339C60.082 214.802 60.082 215.555 60.5756 216.018C60.8237 216.251 61.1477 216.365 61.4717 216.365C61.7957 216.365 62.1197 216.248 62.3678 216.018L66.5671 212.075C67.0607 211.612 67.0607 210.859 66.5671 210.396C66.0735 209.933 65.2686 209.931 64.775 210.396Z" fill="black"/>
<path d="M64.7649 198.547L54.2551 208.406C53.7616 208.869 53.7616 209.622 54.2551 210.085C54.5032 210.318 54.8272 210.432 55.1512 210.432C55.4752 210.432 55.7992 210.315 56.0473 210.085L66.557 200.226C67.0506 199.763 67.0506 199.01 66.557 198.547C66.0634 198.084 65.2585 198.084 64.7649 198.547Z" fill="black"/>
<path d="M66.6228 221.689C66.8709 221.922 67.1949 222.036 67.5189 222.036C67.8429 222.036 68.1669 221.92 68.4149 221.689L78.9247 211.831C79.4183 211.367 79.4183 210.615 78.9247 210.151C78.4311 209.688 77.6287 209.688 77.1351 210.151L66.6253 220.01C66.1292 220.476 66.1292 221.226 66.6228 221.689Z" fill="black"/>
</g>
<defs>
<clipPath id="clip0_613_25">
<rect width="81" height="76" fill="white" transform="translate(51 149)"/>
</clipPath>
</defs>
</svg>
